<svg version="1.1" xmlns="http://www.w3.org/2000/svg" xmlns:xlink="http://www.w3.org/1999/xlink" width="56.28968" height="46.32667" viewBox="0,0,56.28968,46.32667"><defs><linearGradient x1="109.8968" y1="630.1571" x2="109.8968" y2="675.3249" gradientUnits="userSpaceOnUse" id="color-1"><stop offset="0" stop-color="#ee2a7b"/><stop offset="1" stop-color="#811150"/></linearGradient></defs><g transform="translate(-212.40014,-157.02045)"><g data-paper-data="{&quot;isPaintingLayer&quot;:true}" fill="url(#color-1)" fill-rule="nonzero" stroke="#ffffff" stroke-width="1.15823" stroke-linecap="butt" stroke-linejoin="miter" stroke-miterlimit="10" stroke-dasharray="" stroke-dashoffset="0" style="mix-blend-mode: normal"><path d="M238.9836,194.3385c1.9287,1.9268 1.9287,5.054 0,6.9823c-1.9278,1.9296 -5.0541,1.9296 -6.9837,0c-7.6132,-7.6133 -17.5745,-17.575 -17.5745,-17.575c-1.9282,-1.9278 -1.9282,-5.0545 0,-6.9832c0,0 11.543,-11.5443 17.7163,-17.7167c1.9282,-1.9287 5.0541,-1.9282 6.9837,0c1.9286,1.9282 1.9286,5.0545 0,6.9832c-7.6133,7.6128 -9.2636,9.2829 -9.2636,9.2829c0,0 24.5814,0.0102 33.3107,0.0102c2.7274,0 4.9382,2.2104 4.9382,4.9378c0,2.7269 -2.2108,4.9382 -4.9382,4.9382c-10.412,0 -33.3375,-0.0097 -33.3375,-0.0097c0,0 2.9752,2.9748 9.1486,9.15z"/></g></g></svg>