<svg version="1.1" xmlns="http://www.w3.org/2000/svg" xmlns:xlink="http://www.w3.org/1999/xlink" width="96.04399" height="180.15085" viewBox="0,0,96.04399,180.15085"><g transform="translate(-210.66672,-45.69057)"><g data-paper-data="{&quot;isPaintingLayer&quot;:true}" fill-rule="nonzero" stroke-linejoin="miter" stroke-miterlimit="10" stroke-dasharray="" stroke-dashoffset="0" style="mix-blend-mode: normal"><g><g fill="#d8d800" stroke="none" stroke-width="1" stroke-linecap="butt"><g><path d="M252.19087,159.66774c-1.08021,1.23694 0.99365,5.27199 -0.12696,6.55667c-1.43302,1.64195 -2.96625,3.37113 -3.82991,5.40458c-1.07391,2.52516 -0.02597,3.20954 -0.91652,-0.02059c0.50836,1.84262 1.48102,3.69286 3.23853,4.64427c3.43867,1.86177 6.74632,0.62247 7.15645,-3.44261c-0.0459,2.14651 -0.0905,4.29172 -0.13509,6.43968c-0.03581,-1.52378 0.37642,-4.42655 -1.69809,-2.38666c-1.05135,1.03286 -2.11779,2.1035 -2.71534,3.48484c-1.1652,2.69278 -1.55119,2.17484 -0.43793,5.01584c0.52227,1.33505 1.0549,2.74131 1.96945,3.87293c0.04735,0.05994 2.96795,3.04901 2.98959,2.41578c0.04866,-1.41453 0.24828,-2.63586 0.95338,-3.87359c-0.04276,2.18599 -0.08551,4.37067 -0.12827,6.55667c-9.55492,6.89046 -5.75713,17.151 1.26068,24.9492c1.09005,1.21123 -1.17202,5.39619 -0.12814,6.55667c-8.04123,-8.93599 -12.49519,-29.77617 -1.00427,-38.06254c-0.97135,0.7013 0.55099,5.36432 -0.12827,6.55667c-0.74038,1.2999 -0.88242,2.39388 -0.93436,3.90664c-0.00157,0.14952 -0.00984,0.30022 -0.02584,0.44816c-6.52467,-4.91314 -6.2074,-13.22128 -5.55581,-20.57433c0.229,-2.59035 5.55712,-12.22252 5.69929,-6.21291c0.05718,2.44254 0.03659,4.90698 -0.09902,7.34689c-0.40068,7.13507 -9.56475,4.56964 -10.40652,-1.08506c-1.03404,-6.96102 0.31989,-13.1355 5.00298,-18.4972z"/></g></g><path d="M259.4352,189.12874c0,0 0.14296,3.95569 -0.13116,5.90206c-0.12591,0.89187 -1.04926,2.49198 -1.04926,2.49198" fill="none" stroke="#d8d800" stroke-width="2" stroke-linecap="round"/></g><path d="M306.01925,111.46874c-4.4655,32.52653 -43.29872,55.91759 -55.02415,55.51179c-12.78662,-0.44187 -44.36371,-36.01544 -39.89965,-68.54446c4.46681,-32.52666 29.33614,-55.97923 55.54773,-52.38107c26.21146,3.59816 43.84144,32.88708 39.37607,65.41375z" fill="#d8d800" stroke="none" stroke-width="1" stroke-linecap="butt"/><text transform="translate(225.85665,105.72523) scale(0.39772,0.39772)" font-size="40" xml:space="preserve" fill="#000000" fill-rule="nonzero" stroke="none" stroke-width="1" stroke-linecap="butt" stroke-linejoin="miter" stroke-miterlimit="10" stroke-dasharray="" stroke-dashoffset="0" font-family="Sans Serif" font-weight="normal" text-anchor="start" style="mix-blend-mode: normal"><tspan x="0" dy="0">Comeme</tspan></text></g></g></svg>