<svg version="1.1" xmlns="http://www.w3.org/2000/svg" xmlns:xlink="http://www.w3.org/1999/xlink" width="181.26077" height="102.33724" viewBox="0,0,181.26077,102.33724"><g transform="translate(-133.56474,-144.06194)"><g data-paper-data="{&quot;isPaintingLayer&quot;:true}" fill-rule="nonzero" stroke-linejoin="miter" stroke-miterlimit="10" stroke-dasharray="" stroke-dashoffset="0" style="mix-blend-mode: normal"><g stroke="#703d00" stroke-linecap="round"><path d="M221.30003,167.13052c14.181,0 24.707,3.5606 36.336,9.6833c5.526,2.9163 10.795,8.1418 13.864,15.5938c2.43,5.9589 3.743,14.6498 1.55,20.6742c-2.536,6.9668 -8.397,10.0937 -13.4,11.8584c-11.446,4.0194 -23.406,4.6185 -35.15,4.1348c-13.222,0.011 -26.656,-0.4181 -39.536,-5.5484c-4.868,-1.938 -9.207,-7.6768 -12.114,-14.0335c-1.865,-4.2441 -3.283,-11.4106 -1.55,-16.5394c2.893,-7.3506 8.09,-13.0364 13.664,-16.1399c11.563,-6.402 22.155,-9.6833 36.336,-9.6833z" data-paper-data="{&quot;origPos&quot;:null}" fill="#a85b00" stroke-width="2.61452"></path><path d="M221.16133,167.23592c14.188,0 24.6504,0.6328 36.3531,5.3386c5.4439,2.1915 13.1254,7.5611 12.9243,14.1102c0.2011,6.328 -7.8717,10.0909 -12.9243,11.644c-11.9632,3.6755 -24.2445,4.5535 -36.6459,4.352c-12.4325,0.0028 -25.4135,-1.5404 -37.7143,-5.7078c-4.0974,-1.3826 -10.3375,-4.951 -9.8067,-10.2882c0.2966,-6.862 6.53,-12.1527 11.4607,-14.1102c11.7299,-4.6537 22.1651,-5.3386 36.3531,-5.3386z" data-paper-data="{&quot;origPos&quot;:null}" fill="#a85b00" stroke-width="2.4183"></path><path d="M224.33333,167.53332c21.1553,-0.0263 25.91,3.9287 38.25,7.3167c5.802,1.594 12.416,5.412 14.45,10.85c2.832,7.58 2.633,20.871 -1.05,24.25c-2.611,2.401 -6.772,-11.258 -11.35,-11.85c-2.897,-0.683 -0.438,7.684 -3.6,9.3c-4.3,2.174 -12.044,-4.568 -14.45,-1.05c-2.726,3.995 5.332,10.527 3.6,15.5c-0.853,3.228 -7.367,5.247 -9.3,2.6c-3.684,-5.05 0.54,-13.195 -2.6,-18.6c-1.649,-2.845 -6.852,-2.975 -9.3,-1.05c-4.601,3.631 -4.068,11.637 -8.75,15c-2.505,1.797 -6.482,0.54 -8.8,-1.05c-5.86,-4.952 -7.327,-16.19 -14.45,-17.55c-5.374,-1.033 -8.221,12.954 -11.9,11.35c-4.157,-1.832 0.506,-15.752 -3.1,-19.1c-2.229,-2.06 -6.49,9.902 -8.75,8.25c-2.626,-2.233 -2.936,-11.016 -1.05,-16c1.968,-5.04 6.556,-9.716 11.758,-11.162c13.007,-3.611 10.872,-5.4684 40.392,-7.0047z" data-paper-data="{&quot;origPos&quot;:null}" fill="#703d00" stroke-width="1.99513"></path></g><path d="M222.25003,166.35342c12.822,0.3158 25.952,1.0596 38.25,4.7835c6.37,1.934 14.289,5.8884 17.2,12.4476c3.122,7.1732 2.923,20.8244 -1.55,24.2778c-3.1,2.2817 -7.987,-11.998 -13.6,-12.8076c-3.087,-0.4753 -0.438,7.9047 -3.6,9.5671c-4.3,2.2364 -12.044,-4.6992 -14.45,-1.0802c-2.726,4.1098 5.332,10.8294 3.6,15.9452c-0.853,3.3207 -7.367,5.3977 -9.3,2.6747c-3.684,-5.1951 0.54,-13.574 -2.6,-19.1342c-1.649,-2.9267 -6.852,-3.0605 -9.3,-1.0802c-4.601,3.7353 -4.068,11.9712 -8.75,15.4308c-2.505,1.8486 -6.482,0.5555 -8.8,-1.0801c-5.86,-5.0942 -7.327,-16.655 -14.45,-18.0541c-5.374,-1.0626 -8.221,13.3261 -11.9,11.676c-4.157,-1.8846 0.506,-16.2044 -3.1,-19.6486c-2.229,-2.1191 -6.49,10.1864 -8.75,8.487c-2.626,-2.2971 -2.936,-11.3324 -1.05,-16.4595c1.968,-5.1848 6.556,-9.9951 11.758,-11.4826c13.007,-3.7147 26.872,-4.2538 40.392,-4.4626z" data-paper-data="{&quot;origPos&quot;:null}" fill="#ddc6d2" stroke="#ddc6d2" stroke-width="2.02398" stroke-linecap="round"></path><path d="M223.62503,177.65002c3.276,0 6.245,0.23 8.395,0.601c2.149,0.371 3.48,0.883 3.48,1.449c0,0.566 -1.331,1.078 -3.48,1.449c-2.15,0.371 -5.119,0.601 -8.395,0.601c-3.276,0 -6.245,-0.23 -8.395,-0.601c-2.149,-0.371 -3.48,-0.883 -3.48,-1.449c0,-0.566 1.331,-1.078 3.48,-1.449c2.15,-0.371 5.119,-0.601 8.395,-0.601z" fill="#a85b00" stroke="#703d00" stroke-width="1.99513" stroke-linecap="butt"></path><g data-paper-data="{&quot;origPos&quot;:null}" fill="none" stroke="#6148a4" stroke-width="1.99513" stroke-linecap="round"><path d="M199.85003,191.94662l3.1,-6.7" data-paper-data="{&quot;origPos&quot;:null}"></path><path d="M221.05003,169.90002h6.2" data-paper-data="{&quot;origPos&quot;:null}"></path><path d="M230.35003,196.25002l-6.2,2.05" data-paper-data="{&quot;origPos&quot;:null}"></path><path d="M242.20003,188.50002l5.7,2.05" data-paper-data="{&quot;origPos&quot;:null}"></path><path d="M192.10003,197.30002l-5.15,2.05" data-paper-data="{&quot;origPos&quot;:null}"></path><path d="M174.05003,187.29662v-4.15" data-paper-data="{&quot;origPos&quot;:null}"></path><path d="M203.50003,168.90002l-4.65,0.5" data-paper-data="{&quot;origPos&quot;:null}"></path><path d="M277.35003,196.25002v-5.7" data-paper-data="{&quot;origPos&quot;:null}"></path><path d="M247.40003,180.75002h-4.65" data-paper-data="{&quot;origPos&quot;:null}"></path><path d="M241.70003,168.90002h3.1z" data-paper-data="{&quot;origPos&quot;:null}"></path></g><g data-paper-data="{&quot;origPos&quot;:null}" fill="none" stroke="#9b4976" stroke-width="1.99513" stroke-linecap="round"><path d="M200.90003,177.15002l-5.15,1" data-paper-data="{&quot;origPos&quot;:null}"></path><path d="M218.45003,190.55002h-6.2" data-paper-data="{&quot;origPos&quot;:null}"></path><path d="M253.05003,184.90002v-4.65" data-paper-data="{&quot;origPos&quot;:null}"></path><path d="M232.90003,170.95002l5.2,3.1" data-paper-data="{&quot;origPos&quot;:null}"></path><path d="M271.15003,188.50002v5.7" data-paper-data="{&quot;origPos&quot;:null}"></path><path d="M261.85003,176.60002h4.15" data-paper-data="{&quot;origPos&quot;:null}"></path><path d="M180.75003,184.35002l4.65,-4.65" data-paper-data="{&quot;origPos&quot;:null}"></path></g><g data-paper-data="{&quot;origPos&quot;:null}" fill="none" stroke="#ffffff" stroke-width="1.99513" stroke-linecap="round"><path d="M186.45003,190.55002l4.1,-1" data-paper-data="{&quot;origPos&quot;:null}"></path><path d="M210.20003,170.95002l4.15,3.6" data-paper-data="{&quot;origPos&quot;:null}"></path><path d="M213.14663,206.60002l4.1,-3.65" data-paper-data="{&quot;origPos&quot;:null}"></path><path d="M238.94663,200.40002l-4.15,-3.1" data-paper-data="{&quot;origPos&quot;:null}"></path><path d="M248.24663,197.80002l-0.5,3.1z" data-paper-data="{&quot;origPos&quot;:null}"></path><path d="M253.39663,172.50002h-4.65" data-paper-data="{&quot;origPos&quot;:null}"></path><path d="M265.79663,186.95002l-4.1,1.05" data-paper-data="{&quot;origPos&quot;:null}"></path><path d="M180.75003,175.05002l-5.7,2.1" data-paper-data="{&quot;origPos&quot;:null}"></path><path d="M190.89663,176.10002l-1.55,-3.6z" data-paper-data="{&quot;origPos&quot;:null}"></path><path d="M233.79663,187.45002l-0.55,-2.55z" data-paper-data="{&quot;origPos&quot;:null}"></path></g><path d="M201.23446,200.55192c0,-1.38071 1.11929,-2.5 2.5,-2.5c1.38071,0 2.5,1.11929 2.5,2.5c0,1.38071 -1.11929,2.5 -2.5,2.5c-1.38071,0 -2.5,-1.11929 -2.5,-2.5z" fill="#000000" stroke="none" stroke-width="0.5" stroke-linecap="butt"></path><path d="M240.38074,201.73817c0,-1.38071 1.11929,-2.5 2.5,-2.5c1.38071,0 2.5,1.11929 2.5,2.5c0,1.38071 -1.11929,2.5 -2.5,2.5c-1.38071,0 -2.5,-1.11929 -2.5,-2.5z" fill="#000000" stroke="none" stroke-width="0.5" stroke-linecap="butt"></path><path d="M226.27323,211.10067c2.5,0 2.5,2.5 2.5,2.5l-0.04855,2.8628c-0.48654,1.46956 -0.21849,3.4835 -1.4596,4.40869c-2.21098,1.64817 -7.55543,0.48408 -9.04972,-1.80528c-0.45928,-0.70365 -0.37338,-5.99636 -0.37338,-7.24558c0,0 0,-2.5 2.5,-2.5c2.5,0 2.5,2.5 2.5,2.5c0,1.544 -0.7619,3.12261 -0.37337,4.61693c0.06904,0.26551 0.56122,-0.02288 0.82026,0.06745c0.29856,0.10412 0.66016,0.78019 0.80627,0.49977c0.23827,-0.45729 -0.18224,-1.01505 -0.27336,-1.52257l-0.04854,-1.88221c0,0 0,-2.5 2.5,-2.5z" fill="#000000" stroke="none" stroke-width="0.5" stroke-linecap="butt"></path><path d="M314.51246,145.45948c1.11804,2.23607 -1.11803,3.35411 -1.11803,3.35411l-0.53652,0.12482c-2.36948,2.36947 -4.71035,5.25815 -7.34674,7.32025c-3.61809,2.82996 -7.72012,5.3765 -11.02256,8.67637c-2.24291,2.24116 -3.76972,5.19906 -5.82797,7.59863c-1.02164,1.19107 -2.53167,1.96438 -3.36028,3.29698c-1.12631,1.81137 -1.35664,4.04596 -2.1228,6.0366c-1.08747,2.82545 -2.1478,5.67642 -2.87707,8.61477c0,0 -0.60634,2.42535 -3.0317,1.81902c-2.42536,-0.60634 -1.81901,-3.0317 -1.81901,-3.0317c1.26592,-5.03011 2.87008,-11.71662 5.67638,-16.19115c0.41677,-0.66453 3.10793,-3.06241 3.75722,-3.82053c2.13196,-2.48932 3.70643,-5.49296 6.03454,-7.82263c3.45063,-3.45296 7.71274,-6.17735 11.5162,-9.11739c2.47913,-1.91636 4.67092,-4.69741 6.88827,-6.91475l1.83598,-1.06143c0,0 2.23606,-1.11804 3.3541,1.11803z" fill="#000000" stroke="none" stroke-width="0.5" stroke-linecap="butt"></path><path d="M134.35041,237.31408c-1.76776,-1.76776 0,-3.53554 0,-3.53554l1.24286,-1.06142c2.62271,-1.30408 5.65713,-1.85693 8.10746,-3.44931c2.48667,-1.61599 4.60805,-3.75775 7.1175,-5.33813c2.83006,-1.7823 6.11231,-2.7707 9.09318,-4.26131c3.21381,-1.6071 7.14228,-4.71901 10.62678,-5.53519c1.53405,-0.35933 3.15084,-0.04458 4.72626,-0.06687c0,0 2.5,0 2.5,2.5c0,2.5 -2.5,2.5 -2.5,2.5c-5.22058,-0.0976 -8.52571,2.77883 -13.11697,5.07419c-2.83293,1.4163 -6.02297,2.34172 -8.70059,4.04244c-2.50335,1.59003 -4.61452,3.74752 -7.1175,5.33813c-2.6355,1.67483 -5.72504,2.27186 -8.50005,3.66819l0.05661,0.12483c0,0 -1.76777,1.76776 -3.53553,0z" fill="#000000" stroke="none" stroke-width="0.5" stroke-linecap="butt"></path><path d="M191.34705,246.08613c-2.23607,-1.11803 -1.11803,-3.3541 -1.11803,-3.3541l1.14172,-2.27861c1.65064,-4.05956 3.69958,-6.91716 4.57415,-11.32866c0,0 0.49029,-2.45145 2.94174,-1.96116c2.45145,0.49029 1.96116,2.94174 1.96116,2.94174c-0.9611,4.7678 -3.20624,8.03993 -4.91585,12.39636l-1.23078,2.4664c0,0 -1.11803,2.23607 -3.3541,1.11803z" fill="#000000" stroke="none" stroke-width="0.5" stroke-linecap="butt"></path><path d="M250.52315,246.08613c-2.23607,1.11803 -3.3541,-1.11803 -3.3541,-1.11803l-0.59313,-1.18625c-1.7649,-3.53673 -3.35971,-7.19675 -4.83013,-10.86581c0,0 -0.92848,-2.32119 1.39272,-3.24967c2.32119,-0.92848 3.24967,1.39272 3.24967,1.39272c1.41332,3.54047 2.95225,7.07867 4.65988,10.4867l0.59313,1.18625c0,0 1.11803,2.23607 -1.11803,3.3541z" fill="#000000" stroke="none" stroke-width="0.5" stroke-linecap="butt"></path><path d="M223.1801,165.48025c-0.34252,-0.36966 -0.59313,-0.91058 -0.59313,-1.7021c0,-2.5 2.5,-2.5 2.5,-2.5l3.09313,2.5c0,2.25895 0,4.51791 0,6.77686c2.84424,-4.18647 6.25398,-7.806 10.097,-11.63111l2.51051,-1.89074c0,0 2,-1.5 3.5,0.5c1.5,2 -0.5,3.5 -0.5,3.5l-2.2345,1.66801c-5.42407,5.45331 -9.91316,10.3039 -12.98202,17.48305c0,0 -0.9848,2.29786 -3.28266,1.31306c-0.30405,-0.13031 -0.55063,-0.28361 -0.74962,-0.45153c-1.79623,0.57269 -2.80869,-1.19911 -2.80869,-1.19911c-2.85972,-5.00682 -5.53605,-9.95205 -7.36315,-15.42681l-0.62833,-3.11701c0,0 -0.49029,-2.45145 1.96116,-2.94174c2.45145,-0.49029 2.94174,1.96116 2.94174,1.96116l0.55792,2.81425c1.04719,3.14604 2.44075,6.11802 3.98064,9.02758c0,-2.22794 0,-4.45587 0,-6.68381zM225.13603,175.72228c0.09404,-0.18688 0.18903,-0.37241 0.28498,-0.55665c-0.25113,-0.01866 -0.47412,-0.06441 -0.67212,-0.13095c0.12857,0.22934 0.25765,0.45853 0.38714,0.6876z" fill="#000000" stroke="none" stroke-width="0.5" stroke-linecap="butt"></path></g></g></svg>