<svg version="1.1" xmlns="http://www.w3.org/2000/svg" xmlns:xlink="http://www.w3.org/1999/xlink" width="180.90334" height="91.63298" viewBox="0,0,180.90334,91.63298"><g transform="translate(-120.49909,-157.10793)"><g data-paper-data="{&quot;isPaintingLayer&quot;:true}" fill-rule="nonzero" stroke-linejoin="miter" stroke-miterlimit="10" stroke-dasharray="" stroke-dashoffset="0" style="mix-blend-mode: normal"><g stroke="#703d00" stroke-linecap="round"><path d="M221.3,167.1305c14.181,0 24.707,3.5606 36.336,9.6833c5.526,2.9163 10.795,8.1418 13.864,15.5938c2.43,5.9589 3.743,14.6498 1.55,20.6742c-2.536,6.9668 -8.397,10.0937 -13.4,11.8584c-11.446,4.0194 -23.406,4.6185 -35.15,4.1348c-13.222,0.011 -26.656,-0.4181 -39.536,-5.5484c-4.868,-1.938 -9.207,-7.6768 -12.114,-14.0335c-1.865,-4.2441 -3.283,-11.4106 -1.55,-16.5394c2.893,-7.3506 8.09,-13.0364 13.664,-16.1399c11.563,-6.402 22.155,-9.6833 36.336,-9.6833z" data-paper-data="{&quot;origPos&quot;:null}" fill="#a85b00" stroke-width="2.61452"></path><path d="M221.1613,167.2359c14.188,0 24.6504,0.6328 36.3531,5.3386c5.4439,2.1915 13.1254,7.5611 12.9243,14.1102c0.2011,6.328 -7.8717,10.0909 -12.9243,11.644c-11.9632,3.6755 -24.2445,4.5535 -36.6459,4.352c-12.4325,0.0028 -25.4135,-1.5404 -37.7143,-5.7078c-4.0974,-1.3826 -10.3375,-4.951 -9.8067,-10.2882c0.2966,-6.862 6.53,-12.1527 11.4607,-14.1102c11.7299,-4.6537 22.1651,-5.3386 36.3531,-5.3386z" data-paper-data="{&quot;origPos&quot;:null}" fill="#a85b00" stroke-width="2.4183"></path><path d="M224.33333,167.53333c21.15533,-0.02633 25.91,3.92867 38.25,7.31667c5.802,1.594 12.416,5.412 14.45,10.85c2.832,7.58 2.633,20.871 -1.05,24.25c-2.611,2.401 -6.772,-11.258 -11.35,-11.85c-2.897,-0.683 -0.438,7.684 -3.6,9.3c-4.3,2.174 -12.044,-4.568 -14.45,-1.05c-2.726,3.995 5.332,10.527 3.6,15.5c-0.853,3.228 -7.367,5.247 -9.3,2.6c-3.684,-5.05 0.54,-13.195 -2.6,-18.6c-1.649,-2.845 -6.852,-2.975 -9.3,-1.05c-4.601,3.631 -4.068,11.637 -8.75,15c-2.505,1.797 -6.482,0.54 -8.8,-1.05c-5.86,-4.952 -7.327,-16.19 -14.45,-17.55c-5.374,-1.033 -8.221,12.954 -11.9,11.35c-4.157,-1.832 0.506,-15.752 -3.1,-19.1c-2.229,-2.06 -6.49,9.902 -8.75,8.25c-2.626,-2.233 -2.936,-11.016 -1.05,-16c1.968,-5.04 6.556,-9.716 11.758,-11.162c13.007,-3.611 10.872,-5.46833 40.392,-7.00467z" data-paper-data="{&quot;origPos&quot;:null}" fill="#703d00" stroke-width="1.99513"></path></g><path d="M222.25,166.3534c12.822,0.3158 25.952,1.0596 38.25,4.7835c6.37,1.934 14.289,5.8884 17.2,12.4476c3.122,7.1732 2.923,20.8244 -1.55,24.2778c-3.1,2.2817 -7.987,-11.998 -13.6,-12.8076c-3.087,-0.4753 -0.438,7.9047 -3.6,9.5671c-4.3,2.2364 -12.044,-4.6992 -14.45,-1.0802c-2.726,4.1098 5.332,10.8294 3.6,15.9452c-0.853,3.3207 -7.367,5.3977 -9.3,2.6747c-3.684,-5.1951 0.54,-13.574 -2.6,-19.1342c-1.649,-2.9267 -6.852,-3.0605 -9.3,-1.0802c-4.601,3.7353 -4.068,11.9712 -8.75,15.4308c-2.505,1.8486 -6.482,0.5555 -8.8,-1.0801c-5.86,-5.0942 -7.327,-16.655 -14.45,-18.0541c-5.374,-1.0626 -8.221,13.3261 -11.9,11.676c-4.157,-1.8846 0.506,-16.2044 -3.1,-19.6486c-2.229,-2.1191 -6.49,10.1864 -8.75,8.487c-2.626,-2.2971 -2.936,-11.3324 -1.05,-16.4595c1.968,-5.1848 6.556,-9.9951 11.758,-11.4826c13.007,-3.7147 26.872,-4.2538 40.392,-4.4626z" data-paper-data="{&quot;origPos&quot;:null}" fill="#ddc6d2" stroke="#ddc6d2" stroke-width="2.02398" stroke-linecap="round"></path><path d="M223.625,177.65c3.276,0 6.245,0.23 8.395,0.601c2.149,0.371 3.48,0.883 3.48,1.449c0,0.566 -1.331,1.078 -3.48,1.449c-2.15,0.371 -5.119,0.601 -8.395,0.601c-3.276,0 -6.245,-0.23 -8.395,-0.601c-2.149,-0.371 -3.48,-0.883 -3.48,-1.449c0,-0.566 1.331,-1.078 3.48,-1.449c2.15,-0.371 5.119,-0.601 8.395,-0.601z" fill="#a85b00" stroke="#703d00" stroke-width="1.99513" stroke-linecap="butt"></path><g data-paper-data="{&quot;origPos&quot;:null}" fill="none" stroke="#6148a4" stroke-width="1.99513" stroke-linecap="round"><path d="M202.95,185.24662l-3.1,6.7" data-paper-data="{&quot;origPos&quot;:null}"></path><path d="M221.05,169.9h6.2" data-paper-data="{&quot;origPos&quot;:null}"></path><path d="M230.35,196.25l-6.2,2.05" data-paper-data="{&quot;origPos&quot;:null}"></path><path d="M247.9,190.55l-5.7,-2.05" data-paper-data="{&quot;origPos&quot;:null}"></path><path d="M192.1,197.3l-5.15,2.05" data-paper-data="{&quot;origPos&quot;:null}"></path><path d="M174.05,183.14662v4.15" data-paper-data="{&quot;origPos&quot;:null}"></path><path d="M203.5,168.9l-4.65,0.5" data-paper-data="{&quot;origPos&quot;:null}"></path><path d="M277.35,196.25v-5.7" data-paper-data="{&quot;origPos&quot;:null}"></path><path d="M242.75,180.75h4.65" data-paper-data="{&quot;origPos&quot;:null}"></path><path d="M241.7,168.9h3.1z" data-paper-data="{&quot;origPos&quot;:null}"></path></g><g data-paper-data="{&quot;origPos&quot;:null}" fill="none" stroke="#9b4976" stroke-width="1.99513" stroke-linecap="round"><path d="M195.75,178.15l5.15,-1" data-paper-data="{&quot;origPos&quot;:null}"></path><path d="M218.45,190.55h-6.2" data-paper-data="{&quot;origPos&quot;:null}"></path><path d="M253.05,184.9v-4.65" data-paper-data="{&quot;origPos&quot;:null}"></path><path d="M238.1,174.05l-5.2,-3.1" data-paper-data="{&quot;origPos&quot;:null}"></path><path d="M271.15,188.5v5.7" data-paper-data="{&quot;origPos&quot;:null}"></path><path d="M261.85,176.6h4.15" data-paper-data="{&quot;origPos&quot;:null}"></path><path d="M185.4,179.7l-4.65,4.65" data-paper-data="{&quot;origPos&quot;:null}"></path></g><g data-paper-data="{&quot;origPos&quot;:null}" fill="none" stroke="#ffffff" stroke-width="1.99513" stroke-linecap="round"><path d="M186.45,190.55l4.1,-1" data-paper-data="{&quot;origPos&quot;:null}"></path><path d="M210.2,170.95l4.15,3.6" data-paper-data="{&quot;origPos&quot;:null}"></path><path d="M213.14662,206.6l4.1,-3.65" data-paper-data="{&quot;origPos&quot;:null}"></path><path d="M238.94662,200.4l-4.15,-3.1" data-paper-data="{&quot;origPos&quot;:null}"></path><path d="M248.24662,197.8l-0.5,3.1z" data-paper-data="{&quot;origPos&quot;:null}"></path><path d="M248.74662,172.5h4.65" data-paper-data="{&quot;origPos&quot;:null}"></path><path d="M265.79661,186.95l-4.1,1.05" data-paper-data="{&quot;origPos&quot;:null}"></path><path d="M175.05,177.15l5.7,-2.1" data-paper-data="{&quot;origPos&quot;:null}"></path><path d="M189.34662,172.5l1.55,3.6z" data-paper-data="{&quot;origPos&quot;:null}"></path><path d="M233.24662,184.9l0.55,2.55z" data-paper-data="{&quot;origPos&quot;:null}"></path></g><path d="M202.60794,194.99183c0,-1.38071 1.11929,-2.5 2.5,-2.5c1.38071,0 2.5,1.11929 2.5,2.5c0,1.38071 -1.11929,2.5 -2.5,2.5c-1.38071,0 -2.5,-1.11929 -2.5,-2.5z" fill="#000000" stroke="none" stroke-width="0.5" stroke-linecap="butt"></path><path d="M251.34087,196.54384c0,-1.38071 1.11929,-2.5 2.5,-2.5c1.38071,0 2.5,1.11929 2.5,2.5c0,1.38071 -1.11929,2.5 -2.5,2.5c-1.38071,0 -2.5,-1.11929 -2.5,-2.5z" fill="#000000" stroke="none" stroke-width="0.5" stroke-linecap="butt"></path><path d="M235.52722,203.04546c2.5,0 2.5,2.5 2.5,2.5v1.552c-0.02087,2.65381 0.60289,6.64066 -1.66344,8.90699c-2.54446,2.54446 -8.68777,2.48497 -11.0994,-0.22838c-3.05964,-3.44242 -2.88881,-4.75507 -3.39228,-8.36852c0,0 -0.31009,-2.48069 2.17061,-2.79078c2.48069,-0.31009 2.79078,2.17061 2.79078,2.17061c0.34002,3.257 1.13814,6.25954 4.83326,5.92062c0.39363,-0.0361 0.88199,0.04042 1.1615,-0.23909c1.26693,-1.26693 0.21604,-3.57982 0.19897,-5.37145v-1.552c0,0 0,-2.5 2.5,-2.5z" fill="#000000" stroke="none" stroke-width="0.5" stroke-linecap="butt"></path><path d="M144.32724,199.97271c0.60634,-2.42536 3.0317,-1.81902 3.0317,-1.81902l1.2416,0.3104c6.50112,1.64862 11.07381,5.79409 16.74998,8.93195c3.24036,1.79131 6.68768,3.16538 9.93145,4.96565c0,0 2.18539,1.21411 0.97129,3.3995c-1.21411,2.18539 -3.3995,0.97129 -3.3995,0.97129c-3.24222,-1.80316 -6.7028,-3.15846 -9.9342,-4.96717c-5.24111,-2.93361 -9.50849,-6.97027 -15.5317,-8.4505l-1.2416,-0.3104c0,0 -2.42536,-0.60634 -1.81902,-3.0317z" fill="#000000" stroke="none" stroke-width="0.5" stroke-linecap="butt"></path><path d="M181.99314,245.80488c-2.08013,-1.38675 -0.69338,-3.46688 -0.69338,-3.46688l0.93316,-1.31222c4.45377,-4.42262 7.27192,-10.29518 11.35445,-15.06885c0,0 1.62698,-1.89814 3.52512,-0.27116c1.89814,1.62698 0.27116,3.52512 0.27116,3.52512c-4.19415,4.88117 -7.07384,10.78174 -11.6152,15.35043l-0.30844,0.55019c0,0 -1.38675,2.08013 -3.46688,0.69338z" fill="#000000" stroke="none" stroke-width="0.5" stroke-linecap="butt"></path><path d="M265.23302,247.59471c-1.38675,2.08013 -3.46688,0.69338 -3.46688,0.69338l-1.1869,-0.81616c-4.47971,-3.98743 -7.07448,-10.06463 -10.1282,-15.1949c0,0 -1.27871,-2.14823 0.86952,-3.42694c2.14823,-1.27871 3.42694,0.86952 3.42694,0.86952c2.69466,4.52702 5.07821,10.56392 9.11665,13.98278l0.6755,0.42544c0,0 2.08013,1.38675 0.69338,3.46688z" fill="#000000" stroke="none" stroke-width="0.5" stroke-linecap="butt"></path><path d="M300.61675,197.88008c1.76777,1.76777 0,3.53553 0,3.53553l-0.93547,0.88737c-2.30077,1.63414 -4.90642,2.53644 -7.20945,4.08359c-2.25168,1.51265 -4.29992,3.57013 -6.76684,4.80109c-2.848,1.42112 -6.29032,2.14498 -9.37845,2.71509c0,0 -2.45967,0.44721 -2.90689,-2.01246c-0.44721,-2.45967 2.01246,-2.90689 2.01246,-2.90689c5.94112,-1.06132 9.40863,-3.54038 14.27399,-6.76225c2.29243,-1.51807 4.81303,-2.36486 7.06899,-3.98683l0.30613,-0.35423c0,0 1.76777,-1.76777 3.53553,0z" fill="#000000" stroke="none" stroke-width="0.5" stroke-linecap="butt"></path><path d="M227.76447,180.24098c-0.43667,0.17467 -0.82405,0.23433 -1.16523,0.21607c-0.1215,0.0937 -0.25815,0.18371 -0.41154,0.26893c-2.18539,1.21411 -3.3995,-0.97129 -3.3995,-0.97129c-3.46669,-6.24394 -6.33654,-13.26165 -12.30454,-17.49342l-1.19988,-0.28343c0,0 -2.37171,-0.79057 -1.58114,-3.16228c0.79057,-2.37171 3.16228,-1.58114 3.16228,-1.58114l2.52493,0.95818c3.99508,2.87154 6.75709,6.67565 9.16788,10.77055c-0.01805,-0.21813 -0.03956,-0.44149 -0.06541,-0.67074c-0.2766,-2.45277 -0.93084,-4.96346 -1.24103,-7.44499c0,0 -0.31009,-2.48069 2.17061,-2.79078c2.48069,-0.31009 2.79078,2.17061 2.79078,2.17061c0.18333,1.46662 0.49031,2.9484 0.76619,4.42193c1.00272,-2.01448 2.49405,-3.84309 4.70662,-5.45032l2.92498,-0.77648c0,0 2.42536,-0.60634 3.0317,1.81902c0.60634,2.42536 -1.81902,3.0317 -1.81902,3.0317l-2.04143,0.46513c-4.17558,2.86658 -3.82493,8.77884 -3.82493,13.25036c0,0 0,1.11539 -0.74503,1.85612c-0.18392,0.53059 -0.59817,1.05662 -1.4473,1.39627z" fill="#000000" stroke="none" stroke-width="0.5" stroke-linecap="butt"></path><path d="M122.37827,203.06225v-19.24484h25.76326v19.24484z" fill="#523000" stroke="#000000" stroke-width="2" stroke-linecap="butt"></path><path d="M127.32788,193.12943c0,-1.38071 1.11929,-2.5 2.5,-2.5c1.38071,0 2.5,1.11929 2.5,2.5c0,1.38071 -1.11929,2.5 -2.5,2.5c-1.38071,0 -2.5,-1.11929 -2.5,-2.5z" fill="#000000" stroke="none" stroke-width="0.5" stroke-linecap="butt"></path><path d="M136.63991,192.81903c0,-1.38071 1.11929,-2.5 2.5,-2.5c1.38071,0 2.5,1.11929 2.5,2.5c0,1.38071 -1.11929,2.5 -2.5,2.5c-1.38071,0 -2.5,-1.11929 -2.5,-2.5z" fill="#000000" stroke="none" stroke-width="0.5" stroke-linecap="butt"></path><path d="M147.83113,181.007c1.38071,0 2.5,1.11929 2.5,2.5c0,1.38071 -1.11929,2.5 -2.5,2.5c-0.97946,0 -1.82736,-0.56326 -2.23747,-1.38353c-0.45458,0.4703 -1.09201,0.76273 -1.79775,0.76273c-0.77847,0 -1.47383,-0.35581 -1.93233,-0.91367c-0.28787,1.06295 -1.25926,1.84487 -2.41328,1.84487c-0.72844,0 -1.38412,-0.31155 -1.84105,-0.80868c-0.29358,0.12108 -0.61526,0.18787 -0.95255,0.18787c-0.51735,0 -0.998,-0.15714 -1.39681,-0.4263c-0.39881,0.26916 -0.87946,0.4263 -1.39681,0.4263c-0.27089,0 -0.53172,-0.04308 -0.776,-0.12277c-0.24428,0.07969 -0.50511,0.12277 -0.776,0.12277c-0.67945,0 -1.29559,-0.27105 -1.7462,-0.71092c-0.39098,0.25339 -0.85722,0.40052 -1.35782,0.40052c-0.38933,0 -0.75788,-0.089 -1.0864,-0.24776c-0.32852,0.15876 -0.69707,0.24776 -1.0864,0.24776c-0.74501,0 -1.41389,-0.32587 -1.8719,-0.84286c-0.42486,0.33355 -0.96045,0.53246 -1.5425,0.53246c-1.38071,0 -2.5,-1.11929 -2.5,-2.5c0,-1.38071 1.11929,-2.5 2.5,-2.5c0.74501,0 1.41389,0.32587 1.8719,0.84286c0.42486,-0.33355 0.96045,-0.53246 1.5425,-0.53246c0.38933,0 0.75788,0.089 1.0864,0.24776c0.32853,-0.15876 0.69707,-0.24776 1.0864,-0.24776c0.67945,0 1.29559,0.27105 1.7462,0.71092c0.39098,-0.25339 0.85722,-0.40052 1.35782,-0.40052c0.27089,0 0.53171,0.04309 0.776,0.12278c0.24428,-0.07969 0.50511,-0.12278 0.776,-0.12278c0.51735,0 0.998,0.15715 1.39681,0.42631c0.39881,-0.26916 0.87946,-0.42631 1.39681,-0.42631c0.72844,0 1.38413,0.31155 1.84106,0.80868c0.29358,-0.12108 0.61526,-0.18787 0.95255,-0.18787c0.77847,0 1.47383,0.3558 1.93233,0.91366c0.28787,-1.06295 1.25926,-1.84486 2.41328,-1.84486c0.97946,0 1.82736,0.56326 2.23746,1.38353c0.45458,-0.4703 1.09202,-0.76273 1.79775,-0.76273z" fill="#c9cd00" stroke="none" stroke-width="0.5" stroke-linecap="butt"></path><path d="M136.9671,204.01025c-2.00517,0 -2.40206,-1.60828 -2.48061,-2.24494c-0.05062,0.75964 -0.40419,1.80148 -1.87946,2.1703c-2.42536,0.60634 -3.0317,-1.81902 -3.0317,-1.81902c-0.224,-1.14373 -0.94534,-2.29824 -0.67199,-3.43118c0.96495,-3.99948 3.56336,-5.59888 7.65571,-4.05409c1.19259,0.45018 1.62826,1.96175 2.44238,2.94263l0.46567,3.9363c0,0 0,2.5 -2.5,2.5zM134.49189,201.45541l0.44088,-0.97527c-1.12177,-2.37874 -1.18601,-1.40707 -0.50672,0.42377c0,0 0.05584,0.22338 0.06585,0.5515z" fill="#080900" stroke="none" stroke-width="0.5" stroke-linecap="butt"></path><path d="M138.81271,198.40624c0,-1.38071 1.11929,-2.5 2.5,-2.5c1.38071,0 2.5,1.11929 2.5,2.5c0,1.38071 -1.11929,2.5 -2.5,2.5c-1.38071,0 -2.5,-1.11929 -2.5,-2.5z" fill="#008fff" stroke="none" stroke-width="0.5" stroke-linecap="butt"></path><path d="M122.36147,198.09584c0,-1.38071 1.11929,-2.5 2.5,-2.5c1.38071,0 2.5,1.11929 2.5,2.5c0,1.38071 -1.11929,2.5 -2.5,2.5c-1.38071,0 -2.5,-1.11929 -2.5,-2.5z" fill="#008fff" stroke="none" stroke-width="0.5" stroke-linecap="butt"></path><path d="M139.12311,208.02866c0,-1.38071 1.11929,-2.5 2.5,-2.5c1.38071,0 2.5,1.11929 2.5,2.5c0,1.38071 -1.11929,2.5 -2.5,2.5c-1.38071,0 -2.5,-1.11929 -2.5,-2.5z" fill="#008fff" stroke="none" stroke-width="0.5" stroke-linecap="butt"></path><path d="M142.22712,213.92628c0,-1.38071 1.11929,-2.5 2.5,-2.5c1.38071,0 2.5,1.11929 2.5,2.5c0,1.38071 -1.11929,2.5 -2.5,2.5c-1.38071,0 -2.5,-1.11929 -2.5,-2.5z" fill="#008fff" stroke="none" stroke-width="0.5" stroke-linecap="butt"></path><path d="M121.74067,208.02866c0,-1.38071 1.11929,-2.5 2.5,-2.5c1.38071,0 2.5,1.11929 2.5,2.5c0,1.38071 -1.11929,2.5 -2.5,2.5c-1.38071,0 -2.5,-1.11929 -2.5,-2.5z" fill="#008fff" stroke="none" stroke-width="0.5" stroke-linecap="butt"></path><path d="M122.36147,214.85748c0,-1.38071 1.11929,-2.5 2.5,-2.5c1.38071,0 2.5,1.11929 2.5,2.5c0,1.38071 -1.11929,2.5 -2.5,2.5c-1.38071,0 -2.5,-1.11929 -2.5,-2.5z" fill="#008fff" stroke="none" stroke-width="0.5" stroke-linecap="butt"></path><path d="" fill="#008fff" stroke="none" stroke-width="0.5" stroke-linecap="butt"></path><path d="M147.21033,178.21339c1.38071,0 2.5,1.11929 2.5,2.5c0,1.38071 -1.11929,2.5 -2.5,2.5c-1.02742,0 -1.91009,-0.61977 -2.29453,-1.50585c-0.33689,0.16907 -0.71727,0.26425 -1.11988,0.26425c-0.48102,0 -0.93031,-0.13585 -1.3116,-0.37128c-0.17722,0.03985 -0.36156,0.06088 -0.55081,0.06088c-0.51735,0 -0.99799,-0.15714 -1.3968,-0.42631c-0.39881,0.26916 -0.87946,0.42631 -1.3968,0.42631c-0.745,0 -1.41389,-0.32588 -1.8719,-0.84286c-0.42487,0.33355 -0.96046,0.53246 -1.5425,0.53246c-0.58639,0 -1.12563,-0.20189 -1.552,-0.53995c-0.42637,0.33806 -0.96561,0.53995 -1.552,0.53995c-0.73987,0 -1.40467,-0.3214 -1.8624,-0.8322c-0.45774,0.5108 -1.12254,0.8322 -1.8624,0.8322c-0.97946,0 -1.82736,-0.56326 -2.23746,-1.38353c-0.45457,0.4703 -1.09201,0.76273 -1.79775,0.76273c-0.48102,0 -0.93031,-0.13585 -1.3116,-0.37128c-0.17722,0.03985 -0.36156,0.06088 -0.55081,0.06088c-1.38071,0 -2.5,-1.11929 -2.5,-2.5c0,-1.38071 1.11929,-2.5 2.5,-2.5c0.48102,0 0.93031,0.13585 1.3116,0.37128c0.17722,-0.03985 0.36156,-0.06088 0.55081,-0.06088c0.97946,0 1.82736,0.56326 2.23746,1.38353c0.45457,-0.4703 1.09201,-0.76273 1.79775,-0.76273c0.73987,0 1.40467,0.3214 1.8624,0.8322c0.45774,-0.5108 1.12254,-0.8322 1.8624,-0.8322c0.58639,0 1.12563,0.20189 1.552,0.53995c0.42637,-0.33806 0.96561,-0.53995 1.552,-0.53995c0.745,0 1.41389,0.32588 1.8719,0.84286c0.42487,-0.33355 0.96046,-0.53246 1.5425,-0.53246c0.51735,0 0.99799,0.15714 1.3968,0.42631c0.39881,-0.26916 0.87946,-0.42631 1.3968,-0.42631c0.48102,0 0.93031,0.13585 1.3116,0.37128c0.17722,-0.03985 0.36156,-0.06088 0.55081,-0.06088c1.02742,0 1.91009,0.61977 2.29453,1.50585c0.33689,-0.16907 0.71727,-0.26425 1.11988,-0.26425z" fill="#11ff00" stroke="none" stroke-width="0.5" stroke-linecap="butt"></path><path d="" fill="#9966ff" stroke="#000000" stroke-width="2" stroke-linecap="butt"></path></g></g></svg>